Shaft (2000)

99 min  -  Action | Crime | Thriller

 
IMDB Ratings: 5.9/10


New York City police detective John Shaft (nephew of the original 1970s detective) goes on a personal mission to make sure the son of a real estate tycoon is brought to justice after a racially-motivated murder. 

Format                         : AVI
Format/Info                    : Audio Video Interleave
File size                      : 567 MiB
Duration                       : 1h 39mn
Overall bit rate               : 798 Kbps
Writing library                : VirtualDub build 11759/release

Video
ID                             : 0
Format                         : MPEG-4 Visual
Codec ID                       : DIV3
Codec ID/Hint                  : DivX 3 Low
Duration                       : 1h 39mn
Bit rate                       : 632 Kbps
Width                          : 640 pixels
Height                         : 304 pixels
Display aspect ratio           : 2.2:1
Frame rate                     : 23.976 fps
Color space                    : YUV
Chroma subsampling             : 4:2:0
Bit depth                      : 8 bits
Compression mode               : Lossy
Bits/(Pixel*Frame)             : 0.135
Stream size                    : 449 MiB (79%)

Audio
ID                             : 1
Format                         : MPEG Audio
Format version                 : Version 1
Format profile                 : Layer 3
Mode                           : Joint stereo
Mode extension                 : MS Stereo
Codec ID                       : 55
Codec ID/Hint                  : MP3
Duration                       : 1h 39mn
Bit rate mode                  : Constant
Bit rate                       : 160 Kbps
Channel(s)                     : 2 channels
Sampling rate                  : 44.1 KHz
Compression mode               : Lossy
Stream size                    : 114 MiB (20%)
Alignment                      : Split accross interleaves
Interleave, duration           : 150 ms (3.60 video frames)
Interleave, preload duration   : 112 ms

